<svg id="visual" viewBox="0 0 960 540" width="960" height="540" xmlns="http://www.w3.org/2000/svg" xmlns:xlink="http://www.w3.org/1999/xlink" version="1.1"><rect x="0" y="0" width="960" height="540" fill="#343A40"></rect><defs><linearGradient id="grad1_0" x1="43.8%" y1="0%" x2="100%" y2="100%"><stop offset="14.444444444444446%" stop-color="#343a40" stop-opacity="1"></stop><stop offset="85.55555555555554%" stop-color="#343a40" stop-opacity="1"></stop></linearGradient></defs><defs><linearGradient id="grad2_0" x1="0%" y1="0%" x2="56.3%" y2="100%"><stop offset="14.444444444444446%" stop-color="#343a40" stop-opacity="1"></stop><stop offset="85.55555555555554%" stop-color="#343a40" stop-opacity="1"></stop></linearGradient></defs><g transform="translate(960, 0)"><path d="M0 243C-21.2 241.5 -42.5 239.9 -62.9 234.7C-83.3 229.5 -102.9 220.6 -121 209.6C-139.1 198.6 -155.9 185.6 -169.7 169.7C-183.5 153.9 -194.5 135.2 -200.9 116C-207.3 96.8 -209.1 77.1 -215.4 57.7C-221.7 38.3 -232.3 19.1 -243 0L0 0Z" fill="#6C757D"></path></g><g transform="translate(0, 540)"><path d="M0 -243C19 -231.1 37.9 -219.2 56.9 -212.5C75.9 -205.8 95 -204.2 115 -199.2C135 -194.2 156.1 -185.8 171.8 -171.8C187.6 -157.8 198 -138.1 205.2 -118.5C212.5 -98.9 216.4 -79.3 222.2 -59.5C227.9 -39.8 235.5 -19.9 243 0L0 0Z" fill="#6C757D"></path></g></svg>